<mxfile host="app.diagrams.net" modified="2023-04-03T20:56:30.535Z" agent="Mozilla/5.0 (Windows NT 10.0; Win64; x64) AppleWebKit/537.36 (KHTML, like Gecko) Chrome/111.0.0.0 Safari/537.36" etag="dQiaoIPttyee1KNntuOB" version="21.1.4" type="device">
  <diagram name="Page-1" id="edf60f1a-56cd-e834-aa8a-f176f3a09ee4">
    <mxGraphModel dx="1114" dy="1434" grid="1" gridSize="10" guides="1" tooltips="1" connect="1" arrows="1" fold="1" page="1" pageScale="1" pageWidth="1100" pageHeight="850" background="none" math="0" shadow="0">
      <root>
        <mxCell id="0" />
        <mxCell id="1" parent="0" />
        <mxCell id="60e70716793133e9-27" value="Create work&amp;nbsp;&lt;div&gt;order backorder&lt;/div&gt;" style="whiteSpace=wrap;html=1;rounded=0;shadow=1;labelBackgroundColor=none;strokeWidth=1;fontFamily=Verdana;fontSize=8;align=center;" parent="1" vertex="1">
          <mxGeometry x="620" y="1120" width="120" height="40" as="geometry" />
        </mxCell>
        <mxCell id="FGiihj-BQ3v4LeOAzdfX-5" style="edgeStyle=orthogonalEdgeStyle;rounded=0;orthogonalLoop=1;jettySize=auto;html=1;exitX=0.5;exitY=0.5;exitDx=0;exitDy=0;exitPerimeter=0;entryX=0;entryY=0.5;entryDx=0;entryDy=0;" edge="1" parent="1" source="FGiihj-BQ3v4LeOAzdfX-1" target="FGiihj-BQ3v4LeOAzdfX-3">
          <mxGeometry relative="1" as="geometry" />
        </mxCell>
        <mxCell id="FGiihj-BQ3v4LeOAzdfX-1" value="Customer" style="shape=umlActor;verticalLabelPosition=bottom;verticalAlign=top;html=1;outlineConnect=0;" vertex="1" parent="1">
          <mxGeometry x="100" y="10" width="30" height="60" as="geometry" />
        </mxCell>
        <mxCell id="FGiihj-BQ3v4LeOAzdfX-7" style="edgeStyle=orthogonalEdgeStyle;rounded=0;orthogonalLoop=1;jettySize=auto;html=1;exitX=1;exitY=0.5;exitDx=0;exitDy=0;entryX=0;entryY=0.25;entryDx=0;entryDy=0;" edge="1" parent="1" source="FGiihj-BQ3v4LeOAzdfX-3" target="FGiihj-BQ3v4LeOAzdfX-29">
          <mxGeometry relative="1" as="geometry">
            <mxPoint x="760" y="28.5" as="targetPoint" />
          </mxGeometry>
        </mxCell>
        <mxCell id="FGiihj-BQ3v4LeOAzdfX-3" value="Create Ticket" style="rounded=0;whiteSpace=wrap;html=1;shadow=1;labelBackgroundColor=none;strokeWidth=1;fontFamily=Verdana;fontSize=10;align=center;" vertex="1" parent="1">
          <mxGeometry x="280" width="120" height="80" as="geometry" />
        </mxCell>
        <mxCell id="FGiihj-BQ3v4LeOAzdfX-11" style="edgeStyle=orthogonalEdgeStyle;rounded=0;orthogonalLoop=1;jettySize=auto;html=1;exitX=0.5;exitY=0.5;exitDx=0;exitDy=0;exitPerimeter=0;" edge="1" parent="1" source="FGiihj-BQ3v4LeOAzdfX-8" target="FGiihj-BQ3v4LeOAzdfX-9">
          <mxGeometry relative="1" as="geometry" />
        </mxCell>
        <mxCell id="FGiihj-BQ3v4LeOAzdfX-27" style="edgeStyle=orthogonalEdgeStyle;rounded=0;orthogonalLoop=1;jettySize=auto;html=1;exitX=0.5;exitY=0.5;exitDx=0;exitDy=0;exitPerimeter=0;entryX=0;entryY=0.75;entryDx=0;entryDy=0;" edge="1" parent="1" source="FGiihj-BQ3v4LeOAzdfX-8" target="FGiihj-BQ3v4LeOAzdfX-14">
          <mxGeometry relative="1" as="geometry" />
        </mxCell>
        <mxCell id="FGiihj-BQ3v4LeOAzdfX-28" style="edgeStyle=orthogonalEdgeStyle;rounded=0;orthogonalLoop=1;jettySize=auto;html=1;exitX=0.5;exitY=0.5;exitDx=0;exitDy=0;exitPerimeter=0;entryX=0;entryY=0.75;entryDx=0;entryDy=0;" edge="1" parent="1" source="FGiihj-BQ3v4LeOAzdfX-8" target="FGiihj-BQ3v4LeOAzdfX-18">
          <mxGeometry relative="1" as="geometry" />
        </mxCell>
        <mxCell id="FGiihj-BQ3v4LeOAzdfX-8" value="Employee" style="shape=umlActor;verticalLabelPosition=bottom;verticalAlign=top;html=1;outlineConnect=0;" vertex="1" parent="1">
          <mxGeometry x="102" y="126" width="30" height="60" as="geometry" />
        </mxCell>
        <mxCell id="FGiihj-BQ3v4LeOAzdfX-13" style="edgeStyle=orthogonalEdgeStyle;rounded=0;orthogonalLoop=1;jettySize=auto;html=1;exitX=1;exitY=0.5;exitDx=0;exitDy=0;entryX=0;entryY=0.5;entryDx=0;entryDy=0;" edge="1" parent="1" source="FGiihj-BQ3v4LeOAzdfX-9" target="FGiihj-BQ3v4LeOAzdfX-12">
          <mxGeometry relative="1" as="geometry" />
        </mxCell>
        <mxCell id="FGiihj-BQ3v4LeOAzdfX-9" value="Login" style="rounded=0;whiteSpace=wrap;html=1;shadow=1;labelBackgroundColor=none;strokeWidth=1;fontFamily=Verdana;fontSize=10;align=center;" vertex="1" parent="1">
          <mxGeometry x="280" y="116" width="120" height="80" as="geometry" />
        </mxCell>
        <mxCell id="FGiihj-BQ3v4LeOAzdfX-15" style="edgeStyle=orthogonalEdgeStyle;rounded=0;orthogonalLoop=1;jettySize=auto;html=1;exitX=0.5;exitY=1;exitDx=0;exitDy=0;entryX=1;entryY=0.5;entryDx=0;entryDy=0;" edge="1" parent="1" source="FGiihj-BQ3v4LeOAzdfX-12" target="FGiihj-BQ3v4LeOAzdfX-14">
          <mxGeometry relative="1" as="geometry" />
        </mxCell>
        <mxCell id="FGiihj-BQ3v4LeOAzdfX-19" value="Yes" style="edgeLabel;html=1;align=center;verticalAlign=middle;resizable=0;points=[];" vertex="1" connectable="0" parent="FGiihj-BQ3v4LeOAzdfX-15">
          <mxGeometry x="0.0276" y="1" relative="1" as="geometry">
            <mxPoint as="offset" />
          </mxGeometry>
        </mxCell>
        <mxCell id="FGiihj-BQ3v4LeOAzdfX-17" style="edgeStyle=orthogonalEdgeStyle;rounded=0;orthogonalLoop=1;jettySize=auto;html=1;exitX=1;exitY=0.5;exitDx=0;exitDy=0;entryX=1.033;entryY=0.383;entryDx=0;entryDy=0;entryPerimeter=0;" edge="1" parent="1" source="FGiihj-BQ3v4LeOAzdfX-12" target="FGiihj-BQ3v4LeOAzdfX-18">
          <mxGeometry relative="1" as="geometry">
            <mxPoint x="580" y="410" as="targetPoint" />
            <Array as="points">
              <mxPoint x="600" y="156" />
              <mxPoint x="600" y="323" />
            </Array>
          </mxGeometry>
        </mxCell>
        <mxCell id="FGiihj-BQ3v4LeOAzdfX-20" value="No" style="edgeLabel;html=1;align=center;verticalAlign=middle;resizable=0;points=[];" vertex="1" connectable="0" parent="FGiihj-BQ3v4LeOAzdfX-17">
          <mxGeometry x="-0.3839" relative="1" as="geometry">
            <mxPoint as="offset" />
          </mxGeometry>
        </mxCell>
        <mxCell id="FGiihj-BQ3v4LeOAzdfX-22" style="edgeStyle=orthogonalEdgeStyle;rounded=0;orthogonalLoop=1;jettySize=auto;html=1;exitX=0.5;exitY=0;exitDx=0;exitDy=0;entryX=0;entryY=0.5;entryDx=0;entryDy=0;" edge="1" parent="1" source="FGiihj-BQ3v4LeOAzdfX-12" target="FGiihj-BQ3v4LeOAzdfX-29">
          <mxGeometry relative="1" as="geometry">
            <mxPoint x="760" y="73.5" as="targetPoint" />
          </mxGeometry>
        </mxCell>
        <mxCell id="FGiihj-BQ3v4LeOAzdfX-12" value="IsAdmin" style="rhombus;whiteSpace=wrap;html=1;rounded=0;shadow=1;labelBackgroundColor=none;strokeWidth=1;fontFamily=Verdana;fontSize=8;align=center;" vertex="1" parent="1">
          <mxGeometry x="480" y="116" width="100" height="80" as="geometry" />
        </mxCell>
        <mxCell id="FGiihj-BQ3v4LeOAzdfX-14" value="Users" style="rounded=0;whiteSpace=wrap;html=1;shadow=1;labelBackgroundColor=none;strokeWidth=1;fontFamily=Verdana;fontSize=10;align=center;" vertex="1" parent="1">
          <mxGeometry x="280" y="217" width="120" height="60" as="geometry" />
        </mxCell>
        <mxCell id="FGiihj-BQ3v4LeOAzdfX-18" value="Tickets" style="rounded=0;whiteSpace=wrap;html=1;shadow=1;labelBackgroundColor=none;strokeWidth=1;fontFamily=Verdana;fontSize=10;align=center;" vertex="1" parent="1">
          <mxGeometry x="280" y="300" width="120" height="60" as="geometry" />
        </mxCell>
        <mxCell id="FGiihj-BQ3v4LeOAzdfX-25" value="" style="endArrow=classic;html=1;rounded=0;exitX=1;exitY=0.75;exitDx=0;exitDy=0;entryX=0.5;entryY=1;entryDx=0;entryDy=0;" edge="1" parent="1" target="FGiihj-BQ3v4LeOAzdfX-29">
          <mxGeometry width="50" height="50" relative="1" as="geometry">
            <mxPoint x="400" y="346" as="sourcePoint" />
            <mxPoint x="880" y="230" as="targetPoint" />
            <Array as="points">
              <mxPoint x="890" y="350" />
            </Array>
          </mxGeometry>
        </mxCell>
        <mxCell id="FGiihj-BQ3v4LeOAzdfX-26" value="Resolve" style="edgeLabel;html=1;align=center;verticalAlign=middle;resizable=0;points=[];" vertex="1" connectable="0" parent="FGiihj-BQ3v4LeOAzdfX-25">
          <mxGeometry x="0.1041" y="1" relative="1" as="geometry">
            <mxPoint as="offset" />
          </mxGeometry>
        </mxCell>
        <mxCell id="FGiihj-BQ3v4LeOAzdfX-29" value="App" style="whiteSpace=wrap;html=1;aspect=fixed;" vertex="1" parent="1">
          <mxGeometry x="794" y="-8" width="190" height="190" as="geometry" />
        </mxCell>
      </root>
    </mxGraphModel>
  </diagram>
</mxfile>
